<?xml version="1.0" standalone="no"?>
<!DOCTYPE svg PUBLIC "-//W3C//DTD SVG 20010904//EN"
 "http://www.w3.org/TR/2001/REC-SVG-20010904/DTD/svg10.dtd">
<svg version="1.0" xmlns="http://www.w3.org/2000/svg"
 width="398.000000pt" height="398.000000pt" viewBox="0 0 398.000000 398.000000"
 preserveAspectRatio="xMidYMid meet">
<metadata>
Created by potrace 1.14, written by Peter Selinger 2001-2017
</metadata>
<g transform="translate(0.000000,398.000000) scale(0.100000,-0.100000)"
fill="#000000" stroke="none">
<path d="M2235 3968 c-78 -19 -120 -32 -148 -45 -25 -13 -34 -11 -90 11 -34
13 -92 27 -128 31 -72 8 -119 -7 -207 -66 -24 -16 -46 -29 -49 -29 -12 0 -144
-112 -157 -133 -8 -12 -24 -70 -36 -130 -26 -123 -5 -103 -189 -177 -169 -68
-390 -193 -432 -243 -26 -33 -61 -151 -62 -215 -1 -52 3 -64 45 -129 49 -76
176 -208 241 -251 20 -13 37 -27 37 -29 0 -4 -180 -295 -296 -480 -11 -18 -24
-23 -58 -23 -62 0 -210 -26 -286 -51 -128 -42 -277 -127 -339 -193 -21 -22
-23 -29 -13 -51 17 -37 53 -32 121 19 114 83 299 156 442 172 l63 7 -26 -45
c-106 -180 -301 -565 -295 -581 19 -51 260 -315 389 -427 l66 -58 -28 -27
c-38 -37 -67 -106 -81 -196 -14 -93 -7 -322 11 -343 15 -19 54 -21 68 -4 6 8
10 76 9 168 0 120 3 169 17 215 22 77 36 95 79 102 29 4 46 -1 94 -30 222
-134 443 -204 724 -228 l135 -12 -13 -50 c-17 -69 -37 -261 -29 -292 8 -30 51
-45 72 -23 9 9 18 54 24 123 11 111 22 172 39 218 11 28 4 26 201 48 150 16
355 54 502 94 379 103 637 229 833 407 l49 45 -22 151 c-12 83 -47 248 -77
368 -30 119 -55 221 -55 226 0 16 119 -74 194 -146 85 -83 169 -193 222 -291
20 -38 44 -78 52 -87 22 -26 60 -23 73 5 9 20 5 35 -20 86 -116 229 -307 428
-528 551 -24 13 -43 30 -43 38 0 20 -161 498 -208 616 l-39 99 82 82 c96 96
115 138 115 254 0 92 -17 143 -61 189 -64 65 -194 155 -299 206 -102 50 -133
61 -235 89 -55 15 -53 11 -74 147 -7 41 -17 93 -23 115 -11 40 -53 90 -93 111
-36 19 -70 39 -85 50 -14 10 -128 56 -133 53 -1 -1 -20 -6 -42 -11z"/>
</g>
</svg>
